<?xml version="1.0" encoding="UTF-8" standalone="no"?>
<!DOCTYPE svg PUBLIC "-//W3C//DTD SVG 1.1//EN"
 "http://www.w3.org/Graphics/SVG/1.1/DTD/svg11.dtd">
<!-- Generated by graphviz version 3.0.0 (20220404.1115)
 -->
<!-- Pages: 1 -->
<svg width="1021pt" height="1562pt"
 viewBox="0.00 0.00 1020.78 1561.60" xmlns="http://www.w3.org/2000/svg" xmlns:xlink="http://www.w3.org/1999/xlink">
<g id="graph0" class="graph" transform="scale(1 1) rotate(0) translate(4 1557.6)">
<polygon fill="white" stroke="transparent" points="-4,4 -4,-1557.6 1016.78,-1557.6 1016.78,4 -4,4"/>
<!-- D0 -->
<g id="node1" class="node">
<title>D0</title>
<path fill="none" stroke="black" d="M345.55,-1553.6C345.55,-1553.6 315.55,-1553.6 315.55,-1553.6 309.55,-1553.6 303.55,-1547.6 303.55,-1541.6 303.55,-1541.6 303.55,-1529.6 303.55,-1529.6 303.55,-1523.6 309.55,-1517.6 315.55,-1517.6 315.55,-1517.6 345.55,-1517.6 345.55,-1517.6 351.55,-1517.6 357.55,-1523.6 357.55,-1529.6 357.55,-1529.6 357.55,-1541.6 357.55,-1541.6 357.55,-1547.6 351.55,-1553.6 345.55,-1553.6"/>
<text text-anchor="middle" x="330.55" y="-1531.4" font-family="Times,serif" font-size="14.00">begin</text>
</g>
<!-- D4 -->
<g id="node3" class="node">
<title>D4</title>
<polygon fill="none" stroke="black" points="357.55,-1481.6 303.55,-1481.6 303.55,-1445.6 357.55,-1445.6 357.55,-1481.6"/>
<text text-anchor="middle" x="330.55" y="-1459.4" font-family="Times,serif" font-size="14.00">int M;</text>
</g>
<!-- D0&#45;&gt;D4 -->
<g id="edge44" class="edge">
<title>D0&#45;&gt;D4</title>
<path fill="none" stroke="black" d="M330.55,-1517.3C330.55,-1509.58 330.55,-1500.31 330.55,-1491.71"/>
<polygon fill="black" stroke="black" points="334.05,-1491.7 330.55,-1481.7 327.05,-1491.7 334.05,-1491.7"/>
</g>
<!-- D1 -->
<g id="node2" class="node">
<title>D1</title>
<path fill="none" stroke="black" d="M983.55,-36C983.55,-36 953.55,-36 953.55,-36 947.55,-36 941.55,-30 941.55,-24 941.55,-24 941.55,-12 941.55,-12 941.55,-6 947.55,0 953.55,0 953.55,0 983.55,0 983.55,0 989.55,0 995.55,-6 995.55,-12 995.55,-12 995.55,-24 995.55,-24 995.55,-30 989.55,-36 983.55,-36"/>
<text text-anchor="middle" x="968.55" y="-13.8" font-family="Times,serif" font-size="14.00">end</text>
</g>
<!-- D6 -->
<g id="node4" class="node">
<title>D6</title>
<polygon fill="none" stroke="black" points="427.24,-1409.6 233.87,-1409.6 233.87,-1373.6 427.24,-1373.6 427.24,-1409.6"/>
<text text-anchor="middle" x="330.55" y="-1387.4" font-family="Times,serif" font-size="14.00">int head[MAXN], tail[MAXN];</text>
</g>
<!-- D4&#45;&gt;D6 -->
<g id="edge1" class="edge">
<title>D4&#45;&gt;D6</title>
<path fill="none" stroke="black" d="M330.55,-1445.3C330.55,-1437.58 330.55,-1428.31 330.55,-1419.71"/>
<polygon fill="black" stroke="black" points="334.05,-1419.7 330.55,-1409.7 327.05,-1419.7 334.05,-1419.7"/>
</g>
<!-- D8 -->
<g id="node5" class="node">
<title>D8</title>
<polygon fill="none" stroke="black" points="408.93,-1337.6 252.18,-1337.6 252.18,-1301.6 408.93,-1301.6 408.93,-1337.6"/>
<text text-anchor="middle" x="330.55" y="-1315.4" font-family="Times,serif" font-size="14.00">int dp[MAXN][MAXN];</text>
</g>
<!-- D6&#45;&gt;D8 -->
<g id="edge2" class="edge">
<title>D6&#45;&gt;D8</title>
<path fill="none" stroke="black" d="M330.55,-1373.3C330.55,-1365.58 330.55,-1356.31 330.55,-1347.71"/>
<polygon fill="black" stroke="black" points="334.05,-1347.7 330.55,-1337.7 327.05,-1347.7 334.05,-1347.7"/>
</g>
<!-- D10 -->
<g id="node6" class="node">
<title>D10</title>
<polygon fill="none" stroke="black" points="390.24,-1265.6 270.87,-1265.6 270.87,-1229.6 390.24,-1229.6 390.24,-1265.6"/>
<text text-anchor="middle" x="330.55" y="-1243.4" font-family="Times,serif" font-size="14.00">scanf(&quot;%d&quot;, &amp;M);</text>
</g>
<!-- D8&#45;&gt;D10 -->
<g id="edge3" class="edge">
<title>D8&#45;&gt;D10</title>
<path fill="none" stroke="black" d="M330.55,-1301.3C330.55,-1293.58 330.55,-1284.31 330.55,-1275.71"/>
<polygon fill="black" stroke="black" points="334.05,-1275.7 330.55,-1265.7 327.05,-1275.7 334.05,-1275.7"/>
</g>
<!-- D15 -->
<g id="node8" class="node">
<title>D15</title>
<polygon fill="none" stroke="black" points="362.51,-1193.6 298.6,-1193.6 298.6,-1157.6 362.51,-1157.6 362.51,-1193.6"/>
<text text-anchor="middle" x="330.55" y="-1171.4" font-family="Times,serif" font-size="14.00">int i = 0;</text>
</g>
<!-- D10&#45;&gt;D15 -->
<g id="edge4" class="edge">
<title>D10&#45;&gt;D15</title>
<path fill="none" stroke="black" d="M330.55,-1229.3C330.55,-1221.58 330.55,-1212.31 330.55,-1203.71"/>
<polygon fill="black" stroke="black" points="334.05,-1203.7 330.55,-1193.7 327.05,-1203.7 334.05,-1203.7"/>
</g>
<!-- D14 -->
<g id="node7" class="node">
<title>D14</title>
<polygon fill="none" stroke="black" points="330.55,-1121.6 278.28,-1103.6 330.55,-1085.6 382.83,-1103.6 330.55,-1121.6"/>
<text text-anchor="middle" x="330.55" y="-1099.4" font-family="Times,serif" font-size="14.00">i &lt; M?</text>
</g>
<!-- D19 -->
<g id="node10" class="node">
<title>D19</title>
<polygon fill="none" stroke="black" points="403.93,-1049.6 257.18,-1049.6 257.18,-1013.6 403.93,-1013.6 403.93,-1049.6"/>
<text text-anchor="middle" x="330.55" y="-1027.4" font-family="Times,serif" font-size="14.00">scanf(&quot;%d&quot;, &amp;head[i]);</text>
</g>
<!-- D14&#45;&gt;D19 -->
<g id="edge10" class="edge">
<title>D14:s&#45;&gt;D19:n</title>
<path fill="none" stroke="black" d="M330.55,-1085.6C330.55,-1073.6 330.55,-1068.35 330.55,-1059.72"/>
<polygon fill="black" stroke="black" points="334.05,-1059.6 330.55,-1049.6 327.05,-1059.6 334.05,-1059.6"/>
<text text-anchor="middle" x="325.5" y="-1072.03" font-family="Times,serif" font-size="14.00">Y</text>
</g>
<!-- D24 -->
<g id="node12" class="node">
<title>D24</title>
<polygon fill="none" stroke="black" points="485.51,-1049.6 421.6,-1049.6 421.6,-1013.6 485.51,-1013.6 485.51,-1049.6"/>
<text text-anchor="middle" x="453.55" y="-1027.4" font-family="Times,serif" font-size="14.00">int i = 0;</text>
</g>
<!-- D14&#45;&gt;D24 -->
<g id="edge5" class="edge">
<title>D14:e&#45;&gt;D24:n</title>
<path fill="none" stroke="black" d="M383.55,-1103.6C419.32,-1103.6 447.97,-1091.42 452.83,-1059.6"/>
<polygon fill="black" stroke="black" points="456.32,-1059.83 453.55,-1049.6 449.34,-1059.32 456.32,-1059.83"/>
<text text-anchor="middle" x="424.87" y="-1097.65" font-family="Times,serif" font-size="14.00">N</text>
</g>
<!-- D15&#45;&gt;D14 -->
<g id="edge6" class="edge">
<title>D15&#45;&gt;D14</title>
<path fill="none" stroke="black" d="M330.55,-1157.3C330.55,-1149.58 330.55,-1140.31 330.55,-1131.71"/>
<polygon fill="black" stroke="black" points="334.05,-1131.7 330.55,-1121.7 327.05,-1131.7 334.05,-1131.7"/>
</g>
<!-- D16 -->
<g id="node9" class="node">
<title>D16</title>
<polygon fill="none" stroke="black" points="307.55,-977.6 253.55,-977.6 253.55,-941.6 307.55,-941.6 307.55,-977.6"/>
<text text-anchor="middle" x="280.55" y="-955.4" font-family="Times,serif" font-size="14.00">i++</text>
</g>
<!-- D16&#45;&gt;D14 -->
<g id="edge8" class="edge">
<title>D16&#45;&gt;D14</title>
<path fill="none" stroke="black" d="M266.14,-977.66C252.43,-996.07 235.68,-1025.95 248.55,-1049.6 258.67,-1068.19 278.43,-1081.26 296.02,-1089.76"/>
<polygon fill="black" stroke="black" points="294.93,-1093.11 305.49,-1094.03 297.81,-1086.73 294.93,-1093.11"/>
</g>
<!-- D19&#45;&gt;D16 -->
<g id="edge7" class="edge">
<title>D19&#45;&gt;D16</title>
<path fill="none" stroke="black" d="M318.19,-1013.3C312.32,-1005.07 305.18,-995.08 298.71,-986.02"/>
<polygon fill="black" stroke="black" points="301.43,-983.81 292.77,-977.7 295.74,-987.88 301.43,-983.81"/>
</g>
<!-- D23 -->
<g id="node11" class="node">
<title>D23</title>
<polygon fill="none" stroke="black" points="453.55,-977.6 383.37,-959.6 453.55,-941.6 523.74,-959.6 453.55,-977.6"/>
<text text-anchor="middle" x="453.55" y="-955.4" font-family="Times,serif" font-size="14.00">i &lt; M &#45; 1?</text>
</g>
<!-- D28 -->
<g id="node14" class="node">
<title>D28</title>
<polygon fill="none" stroke="black" points="517.47,-905.6 389.63,-905.6 389.63,-869.6 517.47,-869.6 517.47,-905.6"/>
<text text-anchor="middle" x="453.55" y="-883.4" font-family="Times,serif" font-size="14.00">tail[i] = head[i + 1];</text>
</g>
<!-- D23&#45;&gt;D28 -->
<g id="edge15" class="edge">
<title>D23:s&#45;&gt;D28:n</title>
<path fill="none" stroke="black" d="M453.55,-941.6C453.55,-929.6 453.55,-924.35 453.55,-915.73"/>
<polygon fill="black" stroke="black" points="457.05,-915.6 453.55,-905.6 450.05,-915.6 457.05,-915.6"/>
<text text-anchor="middle" x="448.5" y="-928.03" font-family="Times,serif" font-size="14.00">Y</text>
</g>
<!-- D30 -->
<g id="node15" class="node">
<title>D30</title>
<polygon fill="none" stroke="black" points="671.41,-905.6 535.7,-905.6 535.7,-869.6 671.41,-869.6 671.41,-905.6"/>
<text text-anchor="middle" x="603.55" y="-883.4" font-family="Times,serif" font-size="14.00">tail[M &#45; 1] = head[0];</text>
</g>
<!-- D23&#45;&gt;D30 -->
<g id="edge9" class="edge">
<title>D23:e&#45;&gt;D30:n</title>
<path fill="none" stroke="black" d="M524.55,-959.6C563.43,-959.6 597.24,-950.02 602.76,-915.89"/>
<polygon fill="black" stroke="black" points="606.28,-915.84 603.55,-905.6 599.3,-915.3 606.28,-915.84"/>
<text text-anchor="middle" x="571.15" y="-954.72" font-family="Times,serif" font-size="14.00">N</text>
</g>
<!-- D24&#45;&gt;D23 -->
<g id="edge11" class="edge">
<title>D24&#45;&gt;D23</title>
<path fill="none" stroke="black" d="M453.55,-1013.3C453.55,-1005.58 453.55,-996.31 453.55,-987.71"/>
<polygon fill="black" stroke="black" points="457.05,-987.7 453.55,-977.7 450.05,-987.7 457.05,-987.7"/>
</g>
<!-- D25 -->
<g id="node13" class="node">
<title>D25</title>
<polygon fill="none" stroke="black" points="434.55,-833.6 380.55,-833.6 380.55,-797.6 434.55,-797.6 434.55,-833.6"/>
<text text-anchor="middle" x="407.55" y="-811.4" font-family="Times,serif" font-size="14.00">i++</text>
</g>
<!-- D25&#45;&gt;D23 -->
<g id="edge13" class="edge">
<title>D25&#45;&gt;D23</title>
<path fill="none" stroke="black" d="M394.94,-833.68C382.99,-852.12 368.53,-882.01 380.55,-905.6 388.8,-921.78 404.55,-934.17 419.31,-942.89"/>
<polygon fill="black" stroke="black" points="417.86,-946.09 428.3,-947.85 421.24,-939.96 417.86,-946.09"/>
</g>
<!-- D28&#45;&gt;D25 -->
<g id="edge12" class="edge">
<title>D28&#45;&gt;D25</title>
<path fill="none" stroke="black" d="M442.18,-869.3C436.84,-861.16 430.35,-851.29 424.44,-842.3"/>
<polygon fill="black" stroke="black" points="427.21,-840.14 418.79,-833.7 421.36,-843.98 427.21,-840.14"/>
</g>
<!-- D32 -->
<g id="node16" class="node">
<title>D32</title>
<polygon fill="none" stroke="black" points="685.56,-833.6 521.54,-833.6 521.54,-797.6 685.56,-797.6 685.56,-833.6"/>
<text text-anchor="middle" x="603.55" y="-811.4" font-family="Times,serif" font-size="14.00">memset(dp, 0, sizeof(dp));</text>
</g>
<!-- D30&#45;&gt;D32 -->
<g id="edge14" class="edge">
<title>D30&#45;&gt;D32</title>
<path fill="none" stroke="black" d="M603.55,-869.3C603.55,-861.58 603.55,-852.31 603.55,-843.71"/>
<polygon fill="black" stroke="black" points="607.05,-843.7 603.55,-833.7 600.05,-843.7 607.05,-843.7"/>
</g>
<!-- D37 -->
<g id="node18" class="node">
<title>D37</title>
<polygon fill="none" stroke="black" points="651.11,-761.6 556,-761.6 556,-725.6 651.11,-725.6 651.11,-761.6"/>
<text text-anchor="middle" x="603.55" y="-739.4" font-family="Times,serif" font-size="14.00">int length = 2;</text>
</g>
<!-- D32&#45;&gt;D37 -->
<g id="edge16" class="edge">
<title>D32&#45;&gt;D37</title>
<path fill="none" stroke="black" d="M603.55,-797.3C603.55,-789.58 603.55,-780.31 603.55,-771.71"/>
<polygon fill="black" stroke="black" points="607.05,-771.7 603.55,-761.7 600.05,-771.7 607.05,-771.7"/>
</g>
<!-- D36 -->
<g id="node17" class="node">
<title>D36</title>
<polygon fill="none" stroke="black" points="603.55,-689.6 513.19,-671.6 603.55,-653.6 693.92,-671.6 603.55,-689.6"/>
<text text-anchor="middle" x="603.55" y="-667.4" font-family="Times,serif" font-size="14.00">length &lt;= M?</text>
</g>
<!-- D44 -->
<g id="node21" class="node">
<title>D44</title>
<polygon fill="none" stroke="black" points="565.51,-617.6 501.6,-617.6 501.6,-581.6 565.51,-581.6 565.51,-617.6"/>
<text text-anchor="middle" x="533.55" y="-595.4" font-family="Times,serif" font-size="14.00">int i = 0;</text>
</g>
<!-- D36&#45;&gt;D44 -->
<g id="edge32" class="edge">
<title>D36:s&#45;&gt;D44:n</title>
<path fill="none" stroke="black" d="M603.55,-653.6C603.55,-622.72 549,-645.57 536.21,-627.28"/>
<polygon fill="black" stroke="black" points="539.58,-626.32 533.55,-617.6 532.83,-628.17 539.58,-626.32"/>
<text text-anchor="middle" x="563.5" y="-639.8" font-family="Times,serif" font-size="14.00">Y</text>
</g>
<!-- D61 -->
<g id="node29" class="node">
<title>D61</title>
<polygon fill="none" stroke="black" points="821.31,-617.6 691.8,-617.6 691.8,-581.6 821.31,-581.6 821.31,-617.6"/>
<text text-anchor="middle" x="756.55" y="-595.4" font-family="Times,serif" font-size="14.00">int max_energy = 0;</text>
</g>
<!-- D36&#45;&gt;D61 -->
<g id="edge17" class="edge">
<title>D36:e&#45;&gt;D61:n</title>
<path fill="none" stroke="black" d="M695.55,-671.6C728.23,-671.6 751.6,-657.11 755.86,-627.68"/>
<polygon fill="black" stroke="black" points="759.36,-627.82 756.55,-617.6 752.37,-627.33 759.36,-627.82"/>
<text text-anchor="middle" x="732.28" y="-664.18" font-family="Times,serif" font-size="14.00">N</text>
</g>
<!-- D37&#45;&gt;D36 -->
<g id="edge18" class="edge">
<title>D37&#45;&gt;D36</title>
<path fill="none" stroke="black" d="M603.55,-725.3C603.55,-717.58 603.55,-708.31 603.55,-699.71"/>
<polygon fill="black" stroke="black" points="607.05,-699.7 603.55,-689.7 600.05,-699.7 607.05,-699.7"/>
</g>
<!-- D38 -->
<g id="node19" class="node">
<title>D38</title>
<polygon fill="none" stroke="black" points="627.84,-473.6 561.27,-473.6 561.27,-437.6 627.84,-437.6 627.84,-473.6"/>
<text text-anchor="middle" x="594.55" y="-451.4" font-family="Times,serif" font-size="14.00">length++</text>
</g>
<!-- D38&#45;&gt;D36 -->
<g id="edge20" class="edge">
<title>D38&#45;&gt;D36</title>
<path fill="none" stroke="black" d="M595.28,-473.83C596.84,-510.92 600.52,-598.58 602.41,-643.31"/>
<polygon fill="black" stroke="black" points="598.91,-643.61 602.83,-653.45 605.91,-643.31 598.91,-643.61"/>
</g>
<!-- D43 -->
<g id="node20" class="node">
<title>D43</title>
<polygon fill="none" stroke="black" points="523.55,-545.6 471.28,-527.6 523.55,-509.6 575.83,-527.6 523.55,-545.6"/>
<text text-anchor="middle" x="523.55" y="-523.4" font-family="Times,serif" font-size="14.00">i &lt; M?</text>
</g>
<!-- D43&#45;&gt;D38 -->
<g id="edge19" class="edge">
<title>D43:e&#45;&gt;D38:n</title>
<path fill="none" stroke="black" d="M576.55,-527.6C586.73,-527.6 592.18,-500.82 593.93,-483.77"/>
<polygon fill="black" stroke="black" points="597.43,-483.8 594.55,-473.6 590.45,-483.37 597.43,-483.8"/>
<text text-anchor="middle" x="586.02" y="-506.15" font-family="Times,serif" font-size="14.00">N</text>
</g>
<!-- D48 -->
<g id="node23" class="node">
<title>D48</title>
<polygon fill="none" stroke="black" points="455.38,-473.6 285.72,-473.6 285.72,-437.6 455.38,-437.6 455.38,-473.6"/>
<text text-anchor="middle" x="370.55" y="-451.4" font-family="Times,serif" font-size="14.00">int j = (i + length &#45; 1) % M;</text>
</g>
<!-- D43&#45;&gt;D48 -->
<g id="edge31" class="edge">
<title>D43:s&#45;&gt;D48:n</title>
<path fill="none" stroke="black" d="M523.55,-509.6C523.55,-443.56 386.83,-532.63 371.88,-483.56"/>
<polygon fill="black" stroke="black" points="375.34,-483.05 370.55,-473.6 368.4,-483.97 375.34,-483.05"/>
<text text-anchor="middle" x="441.92" y="-495.82" font-family="Times,serif" font-size="14.00">Y</text>
</g>
<!-- D44&#45;&gt;D43 -->
<g id="edge21" class="edge">
<title>D44&#45;&gt;D43</title>
<path fill="none" stroke="black" d="M531.08,-581.3C529.96,-573.47 528.62,-564.04 527.37,-555.33"/>
<polygon fill="black" stroke="black" points="530.81,-554.63 525.93,-545.22 523.88,-555.62 530.81,-554.63"/>
</g>
<!-- D45 -->
<g id="node22" class="node">
<title>D45</title>
<polygon fill="none" stroke="black" points="550.55,-252 496.55,-252 496.55,-216 550.55,-216 550.55,-252"/>
<text text-anchor="middle" x="523.55" y="-229.8" font-family="Times,serif" font-size="14.00">i++</text>
</g>
<!-- D45&#45;&gt;D43 -->
<g id="edge23" class="edge">
<title>D45&#45;&gt;D43</title>
<path fill="none" stroke="black" d="M523.55,-252.28C523.55,-300.99 523.55,-439.75 523.55,-499.11"/>
<polygon fill="black" stroke="black" points="520.05,-499.23 523.55,-509.23 527.05,-499.23 520.05,-499.23"/>
</g>
<!-- D53 -->
<g id="node25" class="node">
<title>D53</title>
<polygon fill="none" stroke="black" points="322.51,-398.8 258.6,-398.8 258.6,-362.8 322.51,-362.8 322.51,-398.8"/>
<text text-anchor="middle" x="290.55" y="-376.6" font-family="Times,serif" font-size="14.00">int k = i;</text>
</g>
<!-- D48&#45;&gt;D53 -->
<g id="edge22" class="edge">
<title>D48&#45;&gt;D53</title>
<path fill="none" stroke="black" d="M351.59,-437.35C341.23,-427.92 328.24,-416.09 316.9,-405.78"/>
<polygon fill="black" stroke="black" points="319.13,-403.07 309.38,-398.93 314.42,-408.25 319.13,-403.07"/>
</g>
<!-- D52 -->
<g id="node24" class="node">
<title>D52</title>
<polygon fill="none" stroke="black" points="270.55,-324 219.31,-306 270.55,-288 321.8,-306 270.55,-324"/>
<text text-anchor="middle" x="270.55" y="-301.8" font-family="Times,serif" font-size="14.00">k != j?</text>
</g>
<!-- D52&#45;&gt;D45 -->
<g id="edge24" class="edge">
<title>D52:e&#45;&gt;D45:n</title>
<path fill="none" stroke="black" d="M322.55,-306C365.19,-306 500.04,-299.41 520.85,-262.15"/>
<polygon fill="black" stroke="black" points="524.36,-262.56 523.55,-252 517.59,-260.76 524.36,-262.56"/>
<text text-anchor="middle" x="424.89" y="-302.24" font-family="Times,serif" font-size="14.00">N</text>
</g>
<!-- D57 -->
<g id="node27" class="node">
<title>D57</title>
<polygon fill="none" stroke="black" points="478.47,-252 22.63,-252 22.63,-216 478.47,-216 478.47,-252"/>
<text text-anchor="middle" x="250.55" y="-229.8" font-family="Times,serif" font-size="14.00">int temp = dp[i][k] + dp[(k + 1) % M][j] + head[i] * tail[k % M] * tail[j % M];</text>
</g>
<!-- D52&#45;&gt;D57 -->
<g id="edge30" class="edge">
<title>D52:s&#45;&gt;D57:n</title>
<path fill="none" stroke="black" d="M270.55,-288C270.55,-273.84 258.59,-271 253.17,-261.97"/>
<polygon fill="black" stroke="black" points="256.48,-260.78 250.55,-252 249.71,-262.56 256.48,-260.78"/>
<text text-anchor="middle" x="255.63" y="-274.32" font-family="Times,serif" font-size="14.00">Y</text>
</g>
<!-- D53&#45;&gt;D52 -->
<g id="edge25" class="edge">
<title>D53&#45;&gt;D52</title>
<path fill="none" stroke="black" d="M285.81,-362.55C283.34,-353.56 280.28,-342.4 277.54,-332.44"/>
<polygon fill="black" stroke="black" points="280.87,-331.36 274.85,-322.64 274.12,-333.21 280.87,-331.36"/>
</g>
<!-- D54 -->
<g id="node26" class="node">
<title>D54</title>
<polygon fill="none" stroke="black" points="112.28,-108 4.83,-108 4.83,-72 112.28,-72 112.28,-108"/>
<text text-anchor="middle" x="58.55" y="-85.8" font-family="Times,serif" font-size="14.00">k = (k + 1) % M</text>
</g>
<!-- D54&#45;&gt;D52 -->
<g id="edge27" class="edge">
<title>D54&#45;&gt;D52</title>
<path fill="none" stroke="black" d="M44.92,-108.06C21.27,-139.84 -21.65,-208.8 13.55,-252 38.94,-283.16 151.42,-296.54 218.87,-301.85"/>
<polygon fill="black" stroke="black" points="218.65,-305.35 228.89,-302.61 219.18,-298.37 218.65,-305.35"/>
</g>
<!-- D59 -->
<g id="node28" class="node">
<title>D59</title>
<polygon fill="none" stroke="black" points="282.68,-180 90.43,-180 90.43,-144 282.68,-144 282.68,-180"/>
<text text-anchor="middle" x="186.55" y="-157.8" font-family="Times,serif" font-size="14.00">dp[i][j] = MAX(dp[i][j], temp);</text>
</g>
<!-- D57&#45;&gt;D59 -->
<g id="edge26" class="edge">
<title>D57&#45;&gt;D59</title>
<path fill="none" stroke="black" d="M234.73,-215.7C226.98,-207.22 217.51,-196.86 209.03,-187.58"/>
<polygon fill="black" stroke="black" points="211.52,-185.12 202.19,-180.1 206.36,-189.85 211.52,-185.12"/>
</g>
<!-- D59&#45;&gt;D54 -->
<g id="edge28" class="edge">
<title>D59&#45;&gt;D54</title>
<path fill="none" stroke="black" d="M155.24,-143.88C138.35,-134.64 117.31,-123.13 99.17,-113.21"/>
<polygon fill="black" stroke="black" points="100.44,-109.92 89.99,-108.19 97.08,-116.06 100.44,-109.92"/>
</g>
<!-- D66 -->
<g id="node31" class="node">
<title>D66</title>
<polygon fill="none" stroke="black" points="827.51,-545.6 763.6,-545.6 763.6,-509.6 827.51,-509.6 827.51,-545.6"/>
<text text-anchor="middle" x="795.55" y="-523.4" font-family="Times,serif" font-size="14.00">int i = 0;</text>
</g>
<!-- D61&#45;&gt;D66 -->
<g id="edge29" class="edge">
<title>D61&#45;&gt;D66</title>
<path fill="none" stroke="black" d="M766.19,-581.3C770.68,-573.24 776.11,-563.49 781.08,-554.58"/>
<polygon fill="black" stroke="black" points="784.21,-556.14 786.02,-545.7 778.1,-552.74 784.21,-556.14"/>
</g>
<!-- D65 -->
<g id="node30" class="node">
<title>D65</title>
<polygon fill="none" stroke="black" points="824.55,-473.6 772.28,-455.6 824.55,-437.6 876.83,-455.6 824.55,-473.6"/>
<text text-anchor="middle" x="824.55" y="-451.4" font-family="Times,serif" font-size="14.00">i &lt; M?</text>
</g>
<!-- D73 -->
<g id="node34" class="node">
<title>D73</title>
<polygon fill="none" stroke="black" points="796.51,-398.8 732.6,-398.8 732.6,-362.8 796.51,-362.8 796.51,-398.8"/>
<text text-anchor="middle" x="764.55" y="-376.6" font-family="Times,serif" font-size="14.00">int j = 0;</text>
</g>
<!-- D65&#45;&gt;D73 -->
<g id="edge42" class="edge">
<title>D65:s&#45;&gt;D73:n</title>
<path fill="none" stroke="black" d="M824.55,-437.6C824.55,-410.27 779.43,-425.62 767.45,-409.62"/>
<polygon fill="black" stroke="black" points="770.74,-408.4 764.55,-399.8 764.02,-410.38 770.74,-408.4"/>
<text text-anchor="middle" x="789.38" y="-422.89" font-family="Times,serif" font-size="14.00">Y</text>
</g>
<!-- D79 -->
<g id="node37" class="node">
<title>D79</title>
<polygon fill="none" stroke="black" points="1013.01,-401.4 906.09,-401.4 906.09,-360.2 1013.01,-360.2 1013.01,-401.4"/>
<text text-anchor="middle" x="959.55" y="-385" font-family="Times,serif" font-size="14.00">printf(&quot;%d</text>
<text text-anchor="middle" x="959.55" y="-368.2" font-family="Times,serif" font-size="14.00">&quot;, max_energy);</text>
</g>
<!-- D65&#45;&gt;D79 -->
<g id="edge33" class="edge">
<title>D65:e&#45;&gt;D79:n</title>
<path fill="none" stroke="black" d="M877.55,-455.6C917.61,-455.6 953.22,-446.87 958.8,-411.68"/>
<polygon fill="black" stroke="black" points="962.3,-411.83 959.55,-401.6 955.32,-411.31 962.3,-411.83"/>
<text text-anchor="middle" x="926.09" y="-451.02" font-family="Times,serif" font-size="14.00">N</text>
</g>
<!-- D66&#45;&gt;D65 -->
<g id="edge34" class="edge">
<title>D66&#45;&gt;D65</title>
<path fill="none" stroke="black" d="M802.72,-509.3C806.22,-500.85 810.49,-490.54 814.32,-481.29"/>
<polygon fill="black" stroke="black" points="817.66,-482.38 818.26,-471.8 811.19,-479.7 817.66,-482.38"/>
</g>
<!-- D67 -->
<g id="node32" class="node">
<title>D67</title>
<polygon fill="none" stroke="black" points="940.55,-252 886.55,-252 886.55,-216 940.55,-216 940.55,-252"/>
<text text-anchor="middle" x="913.55" y="-229.8" font-family="Times,serif" font-size="14.00">i++</text>
</g>
<!-- D67&#45;&gt;D65 -->
<g id="edge36" class="edge">
<title>D67&#45;&gt;D65</title>
<path fill="none" stroke="black" d="M906.54,-252.3C890.82,-291.08 852.73,-385.09 834.54,-429.96"/>
<polygon fill="black" stroke="black" points="831.18,-428.92 830.67,-439.51 837.67,-431.55 831.18,-428.92"/>
</g>
<!-- D72 -->
<g id="node33" class="node">
<title>D72</title>
<polygon fill="none" stroke="black" points="746.55,-324 694.28,-306 746.55,-288 798.83,-306 746.55,-324"/>
<text text-anchor="middle" x="746.55" y="-301.8" font-family="Times,serif" font-size="14.00">j &lt; M?</text>
</g>
<!-- D72&#45;&gt;D67 -->
<g id="edge35" class="edge">
<title>D72:e&#45;&gt;D67:n</title>
<path fill="none" stroke="black" d="M799.55,-306C815.1,-306 815.71,-295.08 829.55,-288 862.19,-271.31 904.32,-288.5 912.24,-262.17"/>
<polygon fill="black" stroke="black" points="915.74,-262.37 913.55,-252 908.8,-261.47 915.74,-262.37"/>
<text text-anchor="middle" x="851.69" y="-284.62" font-family="Times,serif" font-size="14.00">N</text>
</g>
<!-- D77 -->
<g id="node36" class="node">
<title>D77</title>
<polygon fill="none" stroke="black" points="868.65,-252 606.46,-252 606.46,-216 868.65,-216 868.65,-252"/>
<text text-anchor="middle" x="737.55" y="-229.8" font-family="Times,serif" font-size="14.00">max_energy = MAX(max_energy, dp[i][j]);</text>
</g>
<!-- D72&#45;&gt;D77 -->
<g id="edge41" class="edge">
<title>D72:s&#45;&gt;D77:n</title>
<path fill="none" stroke="black" d="M746.55,-288C746.55,-275.5 741.38,-270.74 738.88,-261.99"/>
<polygon fill="black" stroke="black" points="742.34,-261.45 737.55,-252 735.4,-262.37 742.34,-261.45"/>
<text text-anchor="middle" x="737.03" y="-274.28" font-family="Times,serif" font-size="14.00">Y</text>
</g>
<!-- D73&#45;&gt;D72 -->
<g id="edge37" class="edge">
<title>D73&#45;&gt;D72</title>
<path fill="none" stroke="black" d="M760.29,-362.55C758.1,-353.68 755.38,-342.7 752.95,-332.85"/>
<polygon fill="black" stroke="black" points="756.34,-332 750.54,-323.13 749.54,-333.68 756.34,-332"/>
</g>
<!-- D74 -->
<g id="node35" class="node">
<title>D74</title>
<polygon fill="none" stroke="black" points="684.55,-180 630.55,-180 630.55,-144 684.55,-144 684.55,-180"/>
<text text-anchor="middle" x="657.55" y="-157.8" font-family="Times,serif" font-size="14.00">j++</text>
</g>
<!-- D74&#45;&gt;D72 -->
<g id="edge39" class="edge">
<title>D74&#45;&gt;D72</title>
<path fill="none" stroke="black" d="M630.55,-179.11C618.02,-188.2 604.41,-200.8 597.55,-216 590.98,-230.59 588.33,-238.93 597.55,-252 619.14,-282.6 660.02,-295.63 693.51,-301.14"/>
<polygon fill="black" stroke="black" points="693.23,-304.64 703.63,-302.62 694.24,-297.71 693.23,-304.64"/>
</g>
<!-- D77&#45;&gt;D74 -->
<g id="edge38" class="edge">
<title>D77&#45;&gt;D74</title>
<path fill="none" stroke="black" d="M717.78,-215.7C707.8,-206.97 695.54,-196.24 684.7,-186.75"/>
<polygon fill="black" stroke="black" points="686.93,-184.06 677.1,-180.1 682.32,-189.32 686.93,-184.06"/>
</g>
<!-- D81 -->
<g id="node38" class="node">
<title>D81</title>
<polygon fill="none" stroke="black" points="1000.37,-108 936.74,-108 936.74,-72 1000.37,-72 1000.37,-108"/>
<text text-anchor="middle" x="968.55" y="-85.8" font-family="Times,serif" font-size="14.00">return 0;</text>
</g>
<!-- D79&#45;&gt;D81 -->
<g id="edge40" class="edge">
<title>D79&#45;&gt;D81</title>
<path fill="none" stroke="black" d="M960.17,-359.95C961.75,-309.43 965.91,-175.89 967.71,-118.19"/>
<polygon fill="black" stroke="black" points="971.21,-118.13 968.02,-108.02 964.21,-117.91 971.21,-118.13"/>
</g>
<!-- D81&#45;&gt;D1 -->
<g id="edge43" class="edge">
<title>D81&#45;&gt;D1</title>
<path fill="none" stroke="black" d="M968.55,-71.7C968.55,-63.98 968.55,-54.71 968.55,-46.11"/>
<polygon fill="black" stroke="black" points="972.05,-46.1 968.55,-36.1 965.05,-46.1 972.05,-46.1"/>
</g>
</g>
</svg>
