<?xml version="1.0" encoding="UTF-8" standalone="no"?>
<!DOCTYPE svg PUBLIC "-//W3C//DTD SVG 1.1//EN"
 "http://www.w3.org/Graphics/SVG/1.1/DTD/svg11.dtd">
<!-- Generated by graphviz version 3.0.0 (20220404.1115)
 -->
<!-- Pages: 1 -->
<svg width="912pt" height="1346pt"
 viewBox="0.00 0.00 912.08 1345.60" xmlns="http://www.w3.org/2000/svg" xmlns:xlink="http://www.w3.org/1999/xlink">
<g id="graph0" class="graph" transform="scale(1 1) rotate(0) translate(4 1341.6)">
<polygon fill="white" stroke="transparent" points="-4,4 -4,-1341.6 908.08,-1341.6 908.08,4 -4,4"/>
<!-- D0 -->
<g id="node1" class="node">
<title>D0</title>
<path fill="none" stroke="black" d="M161.01,-1337.6C161.01,-1337.6 131.01,-1337.6 131.01,-1337.6 125.01,-1337.6 119.01,-1331.6 119.01,-1325.6 119.01,-1325.6 119.01,-1313.6 119.01,-1313.6 119.01,-1307.6 125.01,-1301.6 131.01,-1301.6 131.01,-1301.6 161.01,-1301.6 161.01,-1301.6 167.01,-1301.6 173.01,-1307.6 173.01,-1313.6 173.01,-1313.6 173.01,-1325.6 173.01,-1325.6 173.01,-1331.6 167.01,-1337.6 161.01,-1337.6"/>
<text text-anchor="middle" x="146.01" y="-1315.4" font-family="Times,serif" font-size="14.00">begin</text>
</g>
<!-- D4 -->
<g id="node3" class="node">
<title>D4</title>
<polygon fill="none" stroke="black" points="173.01,-1265.6 119.01,-1265.6 119.01,-1229.6 173.01,-1229.6 173.01,-1265.6"/>
<text text-anchor="middle" x="146.01" y="-1243.4" font-family="Times,serif" font-size="14.00">int n;</text>
</g>
<!-- D0&#45;&gt;D4 -->
<g id="edge39" class="edge">
<title>D0&#45;&gt;D4</title>
<path fill="none" stroke="black" d="M146.01,-1301.3C146.01,-1293.58 146.01,-1284.31 146.01,-1275.71"/>
<polygon fill="black" stroke="black" points="149.51,-1275.7 146.01,-1265.7 142.51,-1275.7 149.51,-1275.7"/>
</g>
<!-- D1 -->
<g id="node2" class="node">
<title>D1</title>
<path fill="none" stroke="black" d="M881.01,-36C881.01,-36 851.01,-36 851.01,-36 845.01,-36 839.01,-30 839.01,-24 839.01,-24 839.01,-12 839.01,-12 839.01,-6 845.01,0 851.01,0 851.01,0 881.01,0 881.01,0 887.01,0 893.01,-6 893.01,-12 893.01,-12 893.01,-24 893.01,-24 893.01,-30 887.01,-36 881.01,-36"/>
<text text-anchor="middle" x="866.01" y="-13.8" font-family="Times,serif" font-size="14.00">end</text>
</g>
<!-- D6 -->
<g id="node4" class="node">
<title>D6</title>
<polygon fill="none" stroke="black" points="202.75,-1193.6 89.28,-1193.6 89.28,-1157.6 202.75,-1157.6 202.75,-1193.6"/>
<text text-anchor="middle" x="146.01" y="-1171.4" font-family="Times,serif" font-size="14.00">scanf(&quot;%d&quot;, &amp;n);</text>
</g>
<!-- D4&#45;&gt;D6 -->
<g id="edge1" class="edge">
<title>D4&#45;&gt;D6</title>
<path fill="none" stroke="black" d="M146.01,-1229.3C146.01,-1221.58 146.01,-1212.31 146.01,-1203.71"/>
<polygon fill="black" stroke="black" points="149.51,-1203.7 146.01,-1193.7 142.51,-1203.7 149.51,-1203.7"/>
</g>
<!-- D8 -->
<g id="node5" class="node">
<title>D8</title>
<polygon fill="none" stroke="black" points="228.02,-1121.6 64,-1121.6 64,-1085.6 228.02,-1085.6 228.02,-1121.6"/>
<text text-anchor="middle" x="146.01" y="-1099.4" font-family="Times,serif" font-size="14.00">memset(dp, 0, sizeof(dp));</text>
</g>
<!-- D6&#45;&gt;D8 -->
<g id="edge2" class="edge">
<title>D6&#45;&gt;D8</title>
<path fill="none" stroke="black" d="M146.01,-1157.3C146.01,-1149.58 146.01,-1140.31 146.01,-1131.71"/>
<polygon fill="black" stroke="black" points="149.51,-1131.7 146.01,-1121.7 142.51,-1131.7 149.51,-1131.7"/>
</g>
<!-- D13 -->
<g id="node7" class="node">
<title>D13</title>
<polygon fill="none" stroke="black" points="177.97,-1049.6 114.06,-1049.6 114.06,-1013.6 177.97,-1013.6 177.97,-1049.6"/>
<text text-anchor="middle" x="146.01" y="-1027.4" font-family="Times,serif" font-size="14.00">int i = 1;</text>
</g>
<!-- D8&#45;&gt;D13 -->
<g id="edge3" class="edge">
<title>D8&#45;&gt;D13</title>
<path fill="none" stroke="black" d="M146.01,-1085.3C146.01,-1077.58 146.01,-1068.31 146.01,-1059.71"/>
<polygon fill="black" stroke="black" points="149.51,-1059.7 146.01,-1049.7 142.51,-1059.7 149.51,-1059.7"/>
</g>
<!-- D12 -->
<g id="node6" class="node">
<title>D12</title>
<polygon fill="none" stroke="black" points="146.01,-977.6 91.46,-959.6 146.01,-941.6 200.56,-959.6 146.01,-977.6"/>
<text text-anchor="middle" x="146.01" y="-955.4" font-family="Times,serif" font-size="14.00">i &lt;= n?</text>
</g>
<!-- D17 -->
<g id="node9" class="node">
<title>D17</title>
<polygon fill="none" stroke="black" points="209.17,-905.6 82.85,-905.6 82.85,-869.6 209.17,-869.6 209.17,-905.6"/>
<text text-anchor="middle" x="146.01" y="-883.4" font-family="Times,serif" font-size="14.00">scanf(&quot;%d&quot;, &amp;a[i]);</text>
</g>
<!-- D12&#45;&gt;D17 -->
<g id="edge9" class="edge">
<title>D12:s&#45;&gt;D17:n</title>
<path fill="none" stroke="black" d="M146.01,-941.6C146.01,-929.6 146.01,-924.35 146.01,-915.73"/>
<polygon fill="black" stroke="black" points="149.51,-915.6 146.01,-905.6 142.51,-915.6 149.51,-915.6"/>
<text text-anchor="middle" x="140.96" y="-928.03" font-family="Times,serif" font-size="14.00">Y</text>
</g>
<!-- D22 -->
<g id="node11" class="node">
<title>D22</title>
<polygon fill="none" stroke="black" points="290.97,-905.6 227.06,-905.6 227.06,-869.6 290.97,-869.6 290.97,-905.6"/>
<text text-anchor="middle" x="259.01" y="-883.4" font-family="Times,serif" font-size="14.00">int i = 1;</text>
</g>
<!-- D12&#45;&gt;D22 -->
<g id="edge4" class="edge">
<title>D12:e&#45;&gt;D22:n</title>
<path fill="none" stroke="black" d="M202.01,-959.6C233.37,-959.6 254.39,-944.18 258.34,-915.74"/>
<polygon fill="black" stroke="black" points="261.84,-915.81 259.01,-905.6 254.86,-915.35 261.84,-915.81"/>
<text text-anchor="middle" x="237.6" y="-950.73" font-family="Times,serif" font-size="14.00">N</text>
</g>
<!-- D13&#45;&gt;D12 -->
<g id="edge5" class="edge">
<title>D13&#45;&gt;D12</title>
<path fill="none" stroke="black" d="M146.01,-1013.3C146.01,-1005.58 146.01,-996.31 146.01,-987.71"/>
<polygon fill="black" stroke="black" points="149.51,-987.7 146.01,-977.7 142.51,-987.7 149.51,-987.7"/>
</g>
<!-- D14 -->
<g id="node8" class="node">
<title>D14</title>
<polygon fill="none" stroke="black" points="128.01,-833.6 74.01,-833.6 74.01,-797.6 128.01,-797.6 128.01,-833.6"/>
<text text-anchor="middle" x="101.01" y="-811.4" font-family="Times,serif" font-size="14.00">i++</text>
</g>
<!-- D14&#45;&gt;D12 -->
<g id="edge7" class="edge">
<title>D14&#45;&gt;D12</title>
<path fill="none" stroke="black" d="M88.43,-833.67C76.51,-852.09 62.06,-881.97 74.01,-905.6 82.48,-922.35 99.01,-935.1 114.1,-943.89"/>
<polygon fill="black" stroke="black" points="112.76,-947.15 123.22,-948.85 116.11,-941 112.76,-947.15"/>
</g>
<!-- D17&#45;&gt;D14 -->
<g id="edge6" class="edge">
<title>D17&#45;&gt;D14</title>
<path fill="none" stroke="black" d="M134.89,-869.3C129.66,-861.16 123.31,-851.29 117.54,-842.3"/>
<polygon fill="black" stroke="black" points="120.36,-840.22 112.01,-833.7 114.47,-844.01 120.36,-840.22"/>
</g>
<!-- D21 -->
<g id="node10" class="node">
<title>D21</title>
<polygon fill="none" stroke="black" points="259.01,-833.6 204.46,-815.6 259.01,-797.6 313.56,-815.6 259.01,-833.6"/>
<text text-anchor="middle" x="259.01" y="-811.4" font-family="Times,serif" font-size="14.00">i &lt;= n?</text>
</g>
<!-- D26 -->
<g id="node13" class="node">
<title>D26</title>
<polygon fill="none" stroke="black" points="322.46,-761.6 195.57,-761.6 195.57,-725.6 322.46,-725.6 322.46,-761.6"/>
<text text-anchor="middle" x="259.01" y="-739.4" font-family="Times,serif" font-size="14.00">scanf(&quot;%d&quot;, &amp;b[i]);</text>
</g>
<!-- D21&#45;&gt;D26 -->
<g id="edge14" class="edge">
<title>D21:s&#45;&gt;D26:n</title>
<path fill="none" stroke="black" d="M259.01,-797.6C259.01,-785.6 259.01,-780.35 259.01,-771.73"/>
<polygon fill="black" stroke="black" points="262.51,-771.6 259.01,-761.6 255.51,-771.6 262.51,-771.6"/>
<text text-anchor="middle" x="253.96" y="-784.03" font-family="Times,serif" font-size="14.00">Y</text>
</g>
<!-- D28 -->
<g id="node14" class="node">
<title>D28</title>
<polygon fill="none" stroke="black" points="423.92,-761.6 340.11,-761.6 340.11,-725.6 423.92,-725.6 423.92,-761.6"/>
<text text-anchor="middle" x="382.01" y="-739.4" font-family="Times,serif" font-size="14.00">int sum = 0;</text>
</g>
<!-- D21&#45;&gt;D28 -->
<g id="edge8" class="edge">
<title>D21:e&#45;&gt;D28:n</title>
<path fill="none" stroke="black" d="M315.01,-815.6C349.67,-815.6 376.54,-802.66 381.27,-771.77"/>
<polygon fill="black" stroke="black" points="384.78,-771.83 382.01,-761.6 377.79,-771.32 384.78,-771.83"/>
<text text-anchor="middle" x="354.45" y="-809.39" font-family="Times,serif" font-size="14.00">N</text>
</g>
<!-- D22&#45;&gt;D21 -->
<g id="edge10" class="edge">
<title>D22&#45;&gt;D21</title>
<path fill="none" stroke="black" d="M259.01,-869.3C259.01,-861.58 259.01,-852.31 259.01,-843.71"/>
<polygon fill="black" stroke="black" points="262.51,-843.7 259.01,-833.7 255.51,-843.7 262.51,-843.7"/>
</g>
<!-- D23 -->
<g id="node12" class="node">
<title>D23</title>
<polygon fill="none" stroke="black" points="241.01,-689.6 187.01,-689.6 187.01,-653.6 241.01,-653.6 241.01,-689.6"/>
<text text-anchor="middle" x="214.01" y="-667.4" font-family="Times,serif" font-size="14.00">i++</text>
</g>
<!-- D23&#45;&gt;D21 -->
<g id="edge12" class="edge">
<title>D23&#45;&gt;D21</title>
<path fill="none" stroke="black" d="M201.43,-689.67C189.51,-708.09 175.06,-737.97 187.01,-761.6 195.48,-778.35 212.01,-791.1 227.1,-799.89"/>
<polygon fill="black" stroke="black" points="225.76,-803.15 236.22,-804.85 229.11,-797 225.76,-803.15"/>
</g>
<!-- D26&#45;&gt;D23 -->
<g id="edge11" class="edge">
<title>D26&#45;&gt;D23</title>
<path fill="none" stroke="black" d="M247.89,-725.3C242.66,-717.16 236.31,-707.29 230.54,-698.3"/>
<polygon fill="black" stroke="black" points="233.36,-696.22 225.01,-689.7 227.47,-700.01 233.36,-696.22"/>
</g>
<!-- D33 -->
<g id="node16" class="node">
<title>D33</title>
<polygon fill="none" stroke="black" points="413.97,-689.6 350.06,-689.6 350.06,-653.6 413.97,-653.6 413.97,-689.6"/>
<text text-anchor="middle" x="382.01" y="-667.4" font-family="Times,serif" font-size="14.00">int i = 1;</text>
</g>
<!-- D28&#45;&gt;D33 -->
<g id="edge13" class="edge">
<title>D28&#45;&gt;D33</title>
<path fill="none" stroke="black" d="M382.01,-725.3C382.01,-717.58 382.01,-708.31 382.01,-699.71"/>
<polygon fill="black" stroke="black" points="385.51,-699.7 382.01,-689.7 378.51,-699.7 385.51,-699.7"/>
</g>
<!-- D32 -->
<g id="node15" class="node">
<title>D32</title>
<polygon fill="none" stroke="black" points="382.01,-617.6 327.46,-599.6 382.01,-581.6 436.56,-599.6 382.01,-617.6"/>
<text text-anchor="middle" x="382.01" y="-595.4" font-family="Times,serif" font-size="14.00">i &lt;= n?</text>
</g>
<!-- D37 -->
<g id="node18" class="node">
<title>D37</title>
<polygon fill="none" stroke="black" points="346.96,-545.6 261.07,-545.6 261.07,-509.6 346.96,-509.6 346.96,-545.6"/>
<text text-anchor="middle" x="304.01" y="-523.4" font-family="Times,serif" font-size="14.00">sum += a[i];</text>
</g>
<!-- D32&#45;&gt;D37 -->
<g id="edge28" class="edge">
<title>D32:s&#45;&gt;D37:n</title>
<path fill="none" stroke="black" d="M382.01,-581.6C382.01,-547.6 320.14,-575.89 306.61,-555.51"/>
<polygon fill="black" stroke="black" points="309.93,-554.39 304.01,-545.6 303.16,-556.16 309.93,-554.39"/>
<text text-anchor="middle" x="338.25" y="-567.79" font-family="Times,serif" font-size="14.00">Y</text>
</g>
<!-- D55 -->
<g id="node25" class="node">
<title>D55</title>
<polygon fill="none" stroke="black" points="579.23,-545.6 444.79,-545.6 444.79,-509.6 579.23,-509.6 579.23,-545.6"/>
<text text-anchor="middle" x="512.01" y="-523.4" font-family="Times,serif" font-size="14.00">int ans = INT_MAX;</text>
</g>
<!-- D32&#45;&gt;D55 -->
<g id="edge15" class="edge">
<title>D32:e&#45;&gt;D55:n</title>
<path fill="none" stroke="black" d="M438.01,-599.6C475.07,-599.6 505.97,-588.59 511.23,-555.92"/>
<polygon fill="black" stroke="black" points="514.74,-555.84 512.01,-545.6 507.76,-555.3 514.74,-555.84"/>
<text text-anchor="middle" x="481.57" y="-594.17" font-family="Times,serif" font-size="14.00">N</text>
</g>
<!-- D33&#45;&gt;D32 -->
<g id="edge16" class="edge">
<title>D33&#45;&gt;D32</title>
<path fill="none" stroke="black" d="M382.01,-653.3C382.01,-645.58 382.01,-636.31 382.01,-627.71"/>
<polygon fill="black" stroke="black" points="385.51,-627.7 382.01,-617.7 378.51,-627.7 385.51,-627.7"/>
</g>
<!-- D34 -->
<g id="node17" class="node">
<title>D34</title>
<polygon fill="none" stroke="black" points="409.01,-326.8 355.01,-326.8 355.01,-290.8 409.01,-290.8 409.01,-326.8"/>
<text text-anchor="middle" x="382.01" y="-304.6" font-family="Times,serif" font-size="14.00">i++</text>
</g>
<!-- D34&#45;&gt;D32 -->
<g id="edge18" class="edge">
<title>D34&#45;&gt;D32</title>
<path fill="none" stroke="black" d="M382.01,-326.91C382.01,-375.16 382.01,-512.58 382.01,-571.38"/>
<polygon fill="black" stroke="black" points="378.51,-571.4 382.01,-581.4 385.51,-571.4 378.51,-571.4"/>
</g>
<!-- D42 -->
<g id="node20" class="node">
<title>D42</title>
<polygon fill="none" stroke="black" points="322.97,-473.6 259.06,-473.6 259.06,-437.6 322.97,-437.6 322.97,-473.6"/>
<text text-anchor="middle" x="291.01" y="-451.4" font-family="Times,serif" font-size="14.00">int j = 0;</text>
</g>
<!-- D37&#45;&gt;D42 -->
<g id="edge17" class="edge">
<title>D37&#45;&gt;D42</title>
<path fill="none" stroke="black" d="M300.8,-509.3C299.37,-501.58 297.65,-492.31 296.05,-483.71"/>
<polygon fill="black" stroke="black" points="299.46,-482.9 294.19,-473.7 292.57,-484.18 299.46,-482.9"/>
</g>
<!-- D41 -->
<g id="node19" class="node">
<title>D41</title>
<polygon fill="none" stroke="black" points="270.01,-401.6 199.59,-383.6 270.01,-365.6 340.44,-383.6 270.01,-401.6"/>
<text text-anchor="middle" x="270.01" y="-379.4" font-family="Times,serif" font-size="14.00">j &lt;= sum?</text>
</g>
<!-- D41&#45;&gt;D34 -->
<g id="edge19" class="edge">
<title>D41:e&#45;&gt;D34:n</title>
<path fill="none" stroke="black" d="M342.01,-383.6C354.59,-383.6 373.61,-356.06 379.91,-337.83"/>
<polygon fill="black" stroke="black" points="383.38,-338.31 382.01,-327.8 376.53,-336.87 383.38,-338.31"/>
<text text-anchor="middle" x="363.72" y="-364.05" font-family="Times,serif" font-size="14.00">N</text>
</g>
<!-- D46 -->
<g id="node22" class="node">
<title>D46</title>
<polygon fill="none" stroke="black" points="337.43,-326.8 174.6,-326.8 174.6,-290.8 337.43,-290.8 337.43,-326.8"/>
<text text-anchor="middle" x="256.01" y="-304.6" font-family="Times,serif" font-size="14.00">dp[i][j] = dp[i&#45;1][j] + b[i];</text>
</g>
<!-- D41&#45;&gt;D46 -->
<g id="edge27" class="edge">
<title>D41:s&#45;&gt;D46:n</title>
<path fill="none" stroke="black" d="M270.01,-365.6C270.01,-351.74 261.64,-347.43 257.84,-337.89"/>
<polygon fill="black" stroke="black" points="261.24,-337.01 256.01,-327.8 254.35,-338.26 261.24,-337.01"/>
<text text-anchor="middle" x="257.8" y="-350.67" font-family="Times,serif" font-size="14.00">Y</text>
</g>
<!-- D42&#45;&gt;D41 -->
<g id="edge20" class="edge">
<title>D42&#45;&gt;D41</title>
<path fill="none" stroke="black" d="M285.82,-437.3C283.39,-429.18 280.43,-419.34 277.74,-410.36"/>
<polygon fill="black" stroke="black" points="281.08,-409.32 274.86,-400.74 274.38,-411.33 281.08,-409.32"/>
</g>
<!-- D43 -->
<g id="node21" class="node">
<title>D43</title>
<polygon fill="none" stroke="black" points="266.01,-108 212.01,-108 212.01,-72 266.01,-72 266.01,-108"/>
<text text-anchor="middle" x="239.01" y="-85.8" font-family="Times,serif" font-size="14.00">j++</text>
</g>
<!-- D43&#45;&gt;D41 -->
<g id="edge22" class="edge">
<title>D43&#45;&gt;D41</title>
<path fill="none" stroke="black" d="M211.63,-90.47C142.56,-90.31 -30.76,-97.92 5.01,-180 48.61,-280.03 171.59,-342.56 233.48,-368.61"/>
<polygon fill="black" stroke="black" points="232.28,-371.9 242.86,-372.48 234.95,-365.43 232.28,-371.9"/>
</g>
<!-- D48 -->
<g id="node23" class="node">
<title>D48</title>
<polygon fill="none" stroke="black" points="256.01,-252 180.02,-234 256.01,-216 332,-234 256.01,-252"/>
<text text-anchor="middle" x="256.01" y="-229.8" font-family="Times,serif" font-size="14.00">(j &gt;= a[i])?</text>
</g>
<!-- D46&#45;&gt;D48 -->
<g id="edge21" class="edge">
<title>D46&#45;&gt;D48</title>
<path fill="none" stroke="black" d="M256.01,-290.55C256.01,-282.12 256.01,-271.77 256.01,-262.3"/>
<polygon fill="black" stroke="black" points="259.51,-262.13 256.01,-252.13 252.51,-262.13 259.51,-262.13"/>
</g>
<!-- D48&#45;&gt;D43 -->
<g id="edge23" class="edge">
<title>D48:e&#45;&gt;D43:n</title>
<path fill="none" stroke="black" d="M333.01,-234C406.98,-234 521.18,-200.14 473.01,-144 441.3,-107.03 267.75,-152.75 242.16,-117.99"/>
<polygon fill="black" stroke="black" points="245.36,-116.48 239.01,-108 238.68,-118.59 245.36,-116.48"/>
<text text-anchor="middle" x="279.45" y="-118.92" font-family="Times,serif" font-size="14.00">N</text>
</g>
<!-- D53 -->
<g id="node24" class="node">
<title>D53</title>
<polygon fill="none" stroke="black" points="464.31,-180 13.72,-180 13.72,-144 464.31,-144 464.31,-180"/>
<text text-anchor="middle" x="239.01" y="-157.8" font-family="Times,serif" font-size="14.00">dp[i][j] = (dp[i&#45;1][j] + b[i] &lt; dp[i&#45;1][j&#45;a[i]]) ? dp[i&#45;1][j] + b[i] : dp[i&#45;1][j&#45;a[i]];</text>
</g>
<!-- D48&#45;&gt;D53 -->
<g id="edge26" class="edge">
<title>D48:s&#45;&gt;D53:n</title>
<path fill="none" stroke="black" d="M256.01,-216C256.01,-202.31 245.84,-198.85 241.24,-189.79"/>
<polygon fill="black" stroke="black" points="244.64,-188.98 239.01,-180 237.81,-190.53 244.64,-188.98"/>
<text text-anchor="middle" x="242.57" y="-202.32" font-family="Times,serif" font-size="14.00">Y</text>
</g>
<!-- D53&#45;&gt;D43 -->
<g id="edge24" class="edge">
<title>D53&#45;&gt;D43</title>
<path fill="none" stroke="black" d="M239.01,-143.7C239.01,-135.98 239.01,-126.71 239.01,-118.11"/>
<polygon fill="black" stroke="black" points="242.51,-118.1 239.01,-108.1 235.51,-118.1 242.51,-118.1"/>
</g>
<!-- D60 -->
<g id="node27" class="node">
<title>D60</title>
<polygon fill="none" stroke="black" points="552.97,-473.6 489.06,-473.6 489.06,-437.6 552.97,-437.6 552.97,-473.6"/>
<text text-anchor="middle" x="521.01" y="-451.4" font-family="Times,serif" font-size="14.00">int i = 0;</text>
</g>
<!-- D55&#45;&gt;D60 -->
<g id="edge25" class="edge">
<title>D55&#45;&gt;D60</title>
<path fill="none" stroke="black" d="M514.24,-509.3C515.23,-501.58 516.42,-492.31 517.53,-483.71"/>
<polygon fill="black" stroke="black" points="521.01,-484.07 518.81,-473.7 514.07,-483.18 521.01,-484.07"/>
</g>
<!-- D59 -->
<g id="node26" class="node">
<title>D59</title>
<polygon fill="none" stroke="black" points="607.01,-401.6 536.59,-383.6 607.01,-365.6 677.44,-383.6 607.01,-401.6"/>
<text text-anchor="middle" x="607.01" y="-379.4" font-family="Times,serif" font-size="14.00">i &lt;= sum?</text>
</g>
<!-- D64 -->
<g id="node29" class="node">
<title>D64</title>
<polygon fill="none" stroke="black" points="810.24,-326.8 557.78,-326.8 557.78,-290.8 810.24,-290.8 810.24,-326.8"/>
<text text-anchor="middle" x="684.01" y="-304.6" font-family="Times,serif" font-size="14.00">int max_time = (dp[n][i] &gt; i) ? dp[n][i] : i;</text>
</g>
<!-- D59&#45;&gt;D64 -->
<g id="edge37" class="edge">
<title>D59:s&#45;&gt;D64:n</title>
<path fill="none" stroke="black" d="M607.01,-365.6C607.01,-331.65 668.09,-358.43 681.45,-337.76"/>
<polygon fill="black" stroke="black" points="684.91,-338.36 684.01,-327.8 678.13,-336.61 684.91,-338.36"/>
<text text-anchor="middle" x="640.17" y="-350.9" font-family="Times,serif" font-size="14.00">Y</text>
</g>
<!-- D73 -->
<g id="node32" class="node">
<title>D73</title>
<polygon fill="none" stroke="black" points="904.16,-329.4 827.87,-329.4 827.87,-288.2 904.16,-288.2 904.16,-329.4"/>
<text text-anchor="middle" x="866.01" y="-313" font-family="Times,serif" font-size="14.00">printf(&quot;%d</text>
<text text-anchor="middle" x="866.01" y="-296.2" font-family="Times,serif" font-size="14.00">&quot;, ans);</text>
</g>
<!-- D59&#45;&gt;D73 -->
<g id="edge29" class="edge">
<title>D59:e&#45;&gt;D73:n</title>
<path fill="none" stroke="black" d="M679.01,-383.6C718.72,-383.6 843.11,-374.54 863.25,-339.6"/>
<polygon fill="black" stroke="black" points="866.72,-340.17 866.01,-329.6 859.97,-338.3 866.72,-340.17"/>
<text text-anchor="middle" x="773.47" y="-378.89" font-family="Times,serif" font-size="14.00">N</text>
</g>
<!-- D60&#45;&gt;D59 -->
<g id="edge30" class="edge">
<title>D60&#45;&gt;D59</title>
<path fill="none" stroke="black" d="M542.27,-437.3C554.59,-427.27 570.15,-414.61 582.92,-404.21"/>
<polygon fill="black" stroke="black" points="585.31,-406.78 590.85,-397.75 580.89,-401.35 585.31,-406.78"/>
</g>
<!-- D61 -->
<g id="node28" class="node">
<title>D61</title>
<polygon fill="none" stroke="black" points="707.01,-108 653.01,-108 653.01,-72 707.01,-72 707.01,-108"/>
<text text-anchor="middle" x="680.01" y="-85.8" font-family="Times,serif" font-size="14.00">i++</text>
</g>
<!-- D61&#45;&gt;D59 -->
<g id="edge32" class="edge">
<title>D61&#45;&gt;D59</title>
<path fill="none" stroke="black" d="M652.82,-107.72C621.78,-128.62 572.75,-167.59 553.01,-216 548.18,-227.85 542.56,-314.95 549.01,-329.6 555.21,-343.66 567.19,-355.61 578.65,-364.58"/>
<polygon fill="black" stroke="black" points="576.69,-367.48 586.82,-370.58 580.83,-361.84 576.69,-367.48"/>
</g>
<!-- D66 -->
<g id="node30" class="node">
<title>D66</title>
<polygon fill="none" stroke="black" points="680.01,-252 561.78,-234 680.01,-216 798.24,-234 680.01,-252"/>
<text text-anchor="middle" x="680.01" y="-229.8" font-family="Times,serif" font-size="14.00">(ans &gt; max_time)?</text>
</g>
<!-- D64&#45;&gt;D66 -->
<g id="edge31" class="edge">
<title>D64&#45;&gt;D66</title>
<path fill="none" stroke="black" d="M683.07,-290.55C682.6,-282.05 682.02,-271.62 681.5,-262.09"/>
<polygon fill="black" stroke="black" points="684.98,-261.67 680.94,-251.88 677.99,-262.05 684.98,-261.67"/>
</g>
<!-- D66&#45;&gt;D61 -->
<g id="edge33" class="edge">
<title>D66:e&#45;&gt;D61:n</title>
<path fill="none" stroke="black" d="M799.01,-234C814.35,-234 805.83,-198.2 744.01,-144 722.54,-125.17 689.65,-136.72 681.76,-118.03"/>
<polygon fill="black" stroke="black" points="685.17,-117.25 680.01,-108 678.28,-118.45 685.17,-117.25"/>
<text text-anchor="middle" x="738.95" y="-131.39" font-family="Times,serif" font-size="14.00">N</text>
</g>
<!-- D71 -->
<g id="node31" class="node">
<title>D71</title>
<polygon fill="none" stroke="black" points="734.95,-180 625.08,-180 625.08,-144 734.95,-144 734.95,-180"/>
<text text-anchor="middle" x="680.01" y="-157.8" font-family="Times,serif" font-size="14.00">ans = max_time;</text>
</g>
<!-- D66&#45;&gt;D71 -->
<g id="edge36" class="edge">
<title>D66:s&#45;&gt;D71:n</title>
<path fill="none" stroke="black" d="M680.01,-216C680.01,-204 680.01,-198.75 680.01,-190.12"/>
<polygon fill="black" stroke="black" points="683.51,-190 680.01,-180 676.51,-190 683.51,-190"/>
<text text-anchor="middle" x="674.96" y="-202.43" font-family="Times,serif" font-size="14.00">Y</text>
</g>
<!-- D71&#45;&gt;D61 -->
<g id="edge34" class="edge">
<title>D71&#45;&gt;D61</title>
<path fill="none" stroke="black" d="M680.01,-143.7C680.01,-135.98 680.01,-126.71 680.01,-118.11"/>
<polygon fill="black" stroke="black" points="683.51,-118.1 680.01,-108.1 676.51,-118.1 683.51,-118.1"/>
</g>
<!-- D75 -->
<g id="node33" class="node">
<title>D75</title>
<polygon fill="none" stroke="black" points="897.83,-180 834.2,-180 834.2,-144 897.83,-144 897.83,-180"/>
<text text-anchor="middle" x="866.01" y="-157.8" font-family="Times,serif" font-size="14.00">return 0;</text>
</g>
<!-- D73&#45;&gt;D75 -->
<g id="edge35" class="edge">
<title>D73&#45;&gt;D75</title>
<path fill="none" stroke="black" d="M866.01,-287.97C866.01,-262.7 866.01,-218.88 866.01,-190.42"/>
<polygon fill="black" stroke="black" points="869.51,-190.33 866.01,-180.33 862.51,-190.33 869.51,-190.33"/>
</g>
<!-- D75&#45;&gt;D1 -->
<g id="edge38" class="edge">
<title>D75&#45;&gt;D1</title>
<path fill="none" stroke="black" d="M866.01,-143.87C866.01,-119.67 866.01,-75.21 866.01,-46.39"/>
<polygon fill="black" stroke="black" points="869.51,-46.19 866.01,-36.19 862.51,-46.19 869.51,-46.19"/>
</g>
</g>
</svg>
